%
M48
M72
T01C0.0236
T02C0.0240
T03C0.0394
T04C0.0512
T05C0.1102
T06C0.1299
%
T01
X15244Y14456
X15402Y17212
X13394Y17212
X11465Y17252
X8355Y17094
X8355Y19063
X8355Y21031
X10048Y21228
X12095Y21385
X11307Y26740
X7370Y26740
X7725Y32252
X8670Y34220
X11622Y34220
X11662Y32291
X15599Y32252
X15559Y34220
X18512Y34220
X18551Y32252
X23158Y30913
X25087Y28905
X26135Y27334
X26750Y27334
X25087Y26937
X24969Y24417
X27607Y22960
X26071Y19063
X25559Y17094
X27685Y17212
X29733Y16149
X28040Y14456
X30441Y18590
X32882Y18669
X36898Y19063
X37882Y20047
X36656Y21444
X36656Y22059
X34929Y22015
X32961Y22015
X32539Y25109
X32539Y25723
X36898Y24968
X41819Y25952
X43788Y23000
X43788Y19063
X43788Y17094
X41819Y15126
X38866Y14456
X21977Y18236
X20559Y18315
X20874Y16464
X21071Y21937
X22252Y21937
X20284Y24102
X21150Y26740
X15244Y26740
X25717Y31385
X28040Y29889
X29654Y31819
X31977Y29889
X33945Y29889
X33591Y31819
X33591Y33787
X36544Y34338
X36544Y31819
X39496Y31819
X41465Y31819
X41465Y34338
X39496Y34338
X8118Y15126
T02
X10086Y18933
X12336Y19483
X12936Y21083
X13886Y21133
X14886Y21383
X15886Y21033
X16736Y19183
X19086Y19533
X19886Y19833
X20786Y20633
X21736Y20633
X22236Y21083
X22886Y20933
X22786Y19433
X21886Y19433
X23486Y19433
X24136Y19433
X27582Y18136
X32173Y16425
X34890Y17252
X36780Y17212
X38985Y17330
X34086Y22583
X35036Y23733
X30136Y23833
X30036Y23033
X27036Y26133
X25136Y25983
X23906Y24023
X23866Y23433
X22685Y22803
X22370Y24141
X21786Y24933
X21086Y24533
X19786Y23433
X19486Y22783
X19586Y22283
X19636Y20894
X19236Y18883
X10886Y21533
X37886Y10583
T03
X39532Y21375
X40319Y21375
X40319Y22359
X39532Y22359
X19697Y18240
X18697Y18240
X18697Y17240
X19697Y17240
X19697Y16240
X18697Y16240
X15086Y23183
T04
X7886Y7783
X9264Y7783
X11386Y7783
X12764Y7783
X14886Y7783
X16264Y7783
X18386Y7783
X19764Y7783
X21886Y7783
X23264Y7783
X25386Y7783
X26764Y7783
X28886Y7783
X30264Y7783
X32386Y7783
X33764Y7783
X35886Y7783
X37264Y7783
X39386Y7783
X40764Y7783
X42886Y7783
X44264Y7783
X44264Y11783
X42886Y11783
X42993Y29085
X44371Y29085
X40871Y29085
X39493Y29085
X37371Y29085
X35993Y29085
X36009Y33235
X37387Y33235
X39459Y33235
X40837Y33235
X42909Y33235
X44287Y33235
X32686Y33235
X31308Y33235
X27936Y33235
X26558Y33235
X24436Y33235
X23058Y33235
X19786Y33285
X18408Y33285
X16286Y33285
X14908Y33285
X12786Y33285
X11408Y33285
X9286Y33285
X7908Y33285
T05
X41386Y24237
X41386Y19497
T06
X44181Y26149
X40638Y10795
X7567Y10795
X7567Y24968
M30
