G75*
G70*
%OFA0B0*%
%FSLAX24Y24*%
%IPPOS*%
%LPD*%
%AMOC8*
5,1,8,0,0,1.08239X$1,22.5*
%
%ADD10C,0.0039*%
%ADD11C,0.0000*%
%ADD12C,0.1339*%
%ADD13C,0.1542*%
%ADD14C,0.0634*%
%ADD15R,0.0808X0.0808*%
%ADD16C,0.0808*%
%ADD17OC8,0.0476*%
%ADD18C,0.0476*%
D10*
X006386Y005283D02*
X045756Y005283D01*
X045756Y035598D01*
X006386Y035598D01*
X006386Y005283D01*
D11*
X006917Y010795D02*
X006919Y010845D01*
X006925Y010895D01*
X006935Y010945D01*
X006948Y010993D01*
X006965Y011041D01*
X006986Y011087D01*
X007010Y011131D01*
X007038Y011173D01*
X007069Y011213D01*
X007103Y011250D01*
X007140Y011285D01*
X007179Y011316D01*
X007220Y011345D01*
X007264Y011370D01*
X007310Y011392D01*
X007357Y011410D01*
X007405Y011424D01*
X007454Y011435D01*
X007504Y011442D01*
X007554Y011445D01*
X007605Y011444D01*
X007655Y011439D01*
X007705Y011430D01*
X007753Y011418D01*
X007801Y011401D01*
X007847Y011381D01*
X007892Y011358D01*
X007935Y011331D01*
X007975Y011301D01*
X008013Y011268D01*
X008048Y011232D01*
X008081Y011193D01*
X008110Y011152D01*
X008136Y011109D01*
X008159Y011064D01*
X008178Y011017D01*
X008193Y010969D01*
X008205Y010920D01*
X008213Y010870D01*
X008217Y010820D01*
X008217Y010770D01*
X008213Y010720D01*
X008205Y010670D01*
X008193Y010621D01*
X008178Y010573D01*
X008159Y010526D01*
X008136Y010481D01*
X008110Y010438D01*
X008081Y010397D01*
X008048Y010358D01*
X008013Y010322D01*
X007975Y010289D01*
X007935Y010259D01*
X007892Y010232D01*
X007847Y010209D01*
X007801Y010189D01*
X007753Y010172D01*
X007705Y010160D01*
X007655Y010151D01*
X007605Y010146D01*
X007554Y010145D01*
X007504Y010148D01*
X007454Y010155D01*
X007405Y010166D01*
X007357Y010180D01*
X007310Y010198D01*
X007264Y010220D01*
X007220Y010245D01*
X007179Y010274D01*
X007140Y010305D01*
X007103Y010340D01*
X007069Y010377D01*
X007038Y010417D01*
X007010Y010459D01*
X006986Y010503D01*
X006965Y010549D01*
X006948Y010597D01*
X006935Y010645D01*
X006925Y010695D01*
X006919Y010745D01*
X006917Y010795D01*
X006917Y024968D02*
X006919Y025018D01*
X006925Y025068D01*
X006935Y025118D01*
X006948Y025166D01*
X006965Y025214D01*
X006986Y025260D01*
X007010Y025304D01*
X007038Y025346D01*
X007069Y025386D01*
X007103Y025423D01*
X007140Y025458D01*
X007179Y025489D01*
X007220Y025518D01*
X007264Y025543D01*
X007310Y025565D01*
X007357Y025583D01*
X007405Y025597D01*
X007454Y025608D01*
X007504Y025615D01*
X007554Y025618D01*
X007605Y025617D01*
X007655Y025612D01*
X007705Y025603D01*
X007753Y025591D01*
X007801Y025574D01*
X007847Y025554D01*
X007892Y025531D01*
X007935Y025504D01*
X007975Y025474D01*
X008013Y025441D01*
X008048Y025405D01*
X008081Y025366D01*
X008110Y025325D01*
X008136Y025282D01*
X008159Y025237D01*
X008178Y025190D01*
X008193Y025142D01*
X008205Y025093D01*
X008213Y025043D01*
X008217Y024993D01*
X008217Y024943D01*
X008213Y024893D01*
X008205Y024843D01*
X008193Y024794D01*
X008178Y024746D01*
X008159Y024699D01*
X008136Y024654D01*
X008110Y024611D01*
X008081Y024570D01*
X008048Y024531D01*
X008013Y024495D01*
X007975Y024462D01*
X007935Y024432D01*
X007892Y024405D01*
X007847Y024382D01*
X007801Y024362D01*
X007753Y024345D01*
X007705Y024333D01*
X007655Y024324D01*
X007605Y024319D01*
X007554Y024318D01*
X007504Y024321D01*
X007454Y024328D01*
X007405Y024339D01*
X007357Y024353D01*
X007310Y024371D01*
X007264Y024393D01*
X007220Y024418D01*
X007179Y024447D01*
X007140Y024478D01*
X007103Y024513D01*
X007069Y024550D01*
X007038Y024590D01*
X007010Y024632D01*
X006986Y024676D01*
X006965Y024722D01*
X006948Y024770D01*
X006935Y024818D01*
X006925Y024868D01*
X006919Y024918D01*
X006917Y024968D01*
X039988Y010795D02*
X039990Y010845D01*
X039996Y010895D01*
X040006Y010945D01*
X040019Y010993D01*
X040036Y011041D01*
X040057Y011087D01*
X040081Y011131D01*
X040109Y011173D01*
X040140Y011213D01*
X040174Y011250D01*
X040211Y011285D01*
X040250Y011316D01*
X040291Y011345D01*
X040335Y011370D01*
X040381Y011392D01*
X040428Y011410D01*
X040476Y011424D01*
X040525Y011435D01*
X040575Y011442D01*
X040625Y011445D01*
X040676Y011444D01*
X040726Y011439D01*
X040776Y011430D01*
X040824Y011418D01*
X040872Y011401D01*
X040918Y011381D01*
X040963Y011358D01*
X041006Y011331D01*
X041046Y011301D01*
X041084Y011268D01*
X041119Y011232D01*
X041152Y011193D01*
X041181Y011152D01*
X041207Y011109D01*
X041230Y011064D01*
X041249Y011017D01*
X041264Y010969D01*
X041276Y010920D01*
X041284Y010870D01*
X041288Y010820D01*
X041288Y010770D01*
X041284Y010720D01*
X041276Y010670D01*
X041264Y010621D01*
X041249Y010573D01*
X041230Y010526D01*
X041207Y010481D01*
X041181Y010438D01*
X041152Y010397D01*
X041119Y010358D01*
X041084Y010322D01*
X041046Y010289D01*
X041006Y010259D01*
X040963Y010232D01*
X040918Y010209D01*
X040872Y010189D01*
X040824Y010172D01*
X040776Y010160D01*
X040726Y010151D01*
X040676Y010146D01*
X040625Y010145D01*
X040575Y010148D01*
X040525Y010155D01*
X040476Y010166D01*
X040428Y010180D01*
X040381Y010198D01*
X040335Y010220D01*
X040291Y010245D01*
X040250Y010274D01*
X040211Y010305D01*
X040174Y010340D01*
X040140Y010377D01*
X040109Y010417D01*
X040081Y010459D01*
X040057Y010503D01*
X040036Y010549D01*
X040019Y010597D01*
X040006Y010645D01*
X039996Y010695D01*
X039990Y010745D01*
X039988Y010795D01*
X043531Y026149D02*
X043533Y026199D01*
X043539Y026249D01*
X043549Y026299D01*
X043562Y026347D01*
X043579Y026395D01*
X043600Y026441D01*
X043624Y026485D01*
X043652Y026527D01*
X043683Y026567D01*
X043717Y026604D01*
X043754Y026639D01*
X043793Y026670D01*
X043834Y026699D01*
X043878Y026724D01*
X043924Y026746D01*
X043971Y026764D01*
X044019Y026778D01*
X044068Y026789D01*
X044118Y026796D01*
X044168Y026799D01*
X044219Y026798D01*
X044269Y026793D01*
X044319Y026784D01*
X044367Y026772D01*
X044415Y026755D01*
X044461Y026735D01*
X044506Y026712D01*
X044549Y026685D01*
X044589Y026655D01*
X044627Y026622D01*
X044662Y026586D01*
X044695Y026547D01*
X044724Y026506D01*
X044750Y026463D01*
X044773Y026418D01*
X044792Y026371D01*
X044807Y026323D01*
X044819Y026274D01*
X044827Y026224D01*
X044831Y026174D01*
X044831Y026124D01*
X044827Y026074D01*
X044819Y026024D01*
X044807Y025975D01*
X044792Y025927D01*
X044773Y025880D01*
X044750Y025835D01*
X044724Y025792D01*
X044695Y025751D01*
X044662Y025712D01*
X044627Y025676D01*
X044589Y025643D01*
X044549Y025613D01*
X044506Y025586D01*
X044461Y025563D01*
X044415Y025543D01*
X044367Y025526D01*
X044319Y025514D01*
X044269Y025505D01*
X044219Y025500D01*
X044168Y025499D01*
X044118Y025502D01*
X044068Y025509D01*
X044019Y025520D01*
X043971Y025534D01*
X043924Y025552D01*
X043878Y025574D01*
X043834Y025599D01*
X043793Y025628D01*
X043754Y025659D01*
X043717Y025694D01*
X043683Y025731D01*
X043652Y025771D01*
X043624Y025813D01*
X043600Y025857D01*
X043579Y025903D01*
X043562Y025951D01*
X043549Y025999D01*
X043539Y026049D01*
X043533Y026099D01*
X043531Y026149D01*
D12*
X044181Y026149D03*
X040638Y010795D03*
X007567Y010795D03*
X007567Y024968D03*
D13*
X041386Y024237D03*
X041386Y019497D03*
D14*
X040319Y021375D03*
X039532Y021375D03*
X039532Y022359D03*
X040319Y022359D03*
X019697Y018240D03*
X018697Y018240D03*
X018697Y017240D03*
X019697Y017240D03*
X019697Y016240D03*
X018697Y016240D03*
D15*
X018386Y007783D03*
X014886Y007783D03*
X011386Y007783D03*
X007886Y007783D03*
X021886Y007783D03*
X025386Y007783D03*
X028886Y007783D03*
X032386Y007783D03*
X035886Y007783D03*
X039386Y007783D03*
X042886Y007783D03*
X042886Y011783D03*
X042993Y029085D03*
X039493Y029085D03*
X035993Y029085D03*
X037387Y033235D03*
X040837Y033235D03*
X044287Y033235D03*
X032686Y033235D03*
X027936Y033235D03*
X024436Y033235D03*
X019786Y033285D03*
X016286Y033285D03*
X012786Y033285D03*
X009286Y033285D03*
D16*
X007908Y033285D03*
X011408Y033285D03*
X014908Y033285D03*
X018408Y033285D03*
X023058Y033235D03*
X026558Y033235D03*
X031308Y033235D03*
X036009Y033235D03*
X039459Y033235D03*
X042909Y033235D03*
X044371Y029085D03*
X040871Y029085D03*
X037371Y029085D03*
X044264Y011783D03*
X044264Y007783D03*
X040764Y007783D03*
X037264Y007783D03*
X033764Y007783D03*
X030264Y007783D03*
X026764Y007783D03*
X023264Y007783D03*
X019764Y007783D03*
X016264Y007783D03*
X012764Y007783D03*
X009264Y007783D03*
D17*
X032539Y025723D03*
X036656Y022059D03*
X026750Y027334D03*
D18*
X026135Y027334D03*
X032539Y025109D03*
X036656Y021444D03*
M02*
